<?xml version="1.0" standalone="no"?>
<!DOCTYPE svg PUBLIC "-//W3C//DTD SVG 1.1//EN" "http://www.w3.org/Graphics/SVG/1.1/DTD/svg11.dtd">
<svg xmlns="http://www.w3.org/2000/svg" width="989" height="549" viewBox="0 0 989 549"><path fill="#e7e9e8" d="M909.855 14.578c14.122 4.94 25.591 20.784 35.832 31.11a8524 8524 0 0 0 9.887 9.949l2.248 2.273c3.78 3.797 7.612 7.432 11.74 10.85 5.565 4.8 9.7 11.472 12.438 18.24 1.752 5.547 1.505 11.787.61 17.484-2.107 8.478-7.405 15.004-13.21 21.365-2.921 3-5.885 5.948-8.873 8.881l-3.278 3.259c-2.85 2.833-5.708 5.656-8.568 8.478-4.582 4.522-9.151 9.057-13.72 13.593q-2.371 2.35-4.75 4.692c-5.962 5.89-5.962 5.89-11.58 12.102-5.347 6.247-11.258 11.98-17.053 17.806l-1.945 1.957a8701 8701 0 0 1-10.192 10.237c-3.486 3.497-6.96 7.005-10.431 10.516q-4.045 4.083-8.108 8.146-1.926 1.934-3.841 3.877c-8.616 8.734-17.298 17.34-29.374 20.982l-2.863.898c-5.155 1.327-10.177 1.869-15.488 2.086-19.848.944-38.41 2.129-55.684 12.871L761 268l-3 2-2.437-.125L753 270l-1.75 1.938C749 274 749 274 747.11 274.476c-5.547.63-10.17.26-15.575-1.058l-2.301-.528a564 564 0 0 1-4.757-1.123 672 672 0 0 0-7.3-1.699q-2.321-.54-4.642-1.088l-2.203-.508c-1.792-.436-3.564-.948-5.332-1.472l-2-2c.098-2.325.098-2.325 1-5 1.934-2.372 1.934-2.372 4.438-4.793l2.71-2.658 2.852-2.737q2.784-2.706 5.563-5.417l2.503-2.411c1.988-1.838 1.988-1.838 2.934-3.984h-2c1.443-4.02 3.41-7.31 5.75-10.875 8.57-13.506 12.174-27.406 13.125-43.25.906-12.649 2.379-23.966 9.089-34.984 4.082-5.797 9.232-10.642 14.248-15.621q1.86-1.868 3.718-3.739c3.344-3.362 6.7-6.711 10.06-10.058 3.524-3.514 7.039-7.038 10.555-10.56q8.854-8.864 17.728-17.708c6.83-6.808 13.645-13.63 20.453-20.46q8.789-8.815 17.598-17.608 5.254-5.242 10.494-10.5 4.923-4.94 9.874-9.855a871 871 0 0 0 3.608-3.613c12.272-12.354 12.272-12.354 20.71-14.736 6.26-1.361 13.584-1.123 19.845.145"/><path fill="#57a8ed" d="m119.936 490.873 6.133-.005q8.41-.005 16.82.001 9.08.002 18.16-.004 16.762-.006 33.526 0 15.512.003 31.024.001h2.082l8.37-.001q39.267-.004 78.536.005 34.773.007 69.548 0a241579 241579 0 0 1 86.653-.004h2.084q15.462.002 30.924-.002 17.642-.005 35.284.003 8.979.005 17.956 0c14.322-.007 28.643.024 42.964.133l2.828.02c5.35.038 10.697.1 16.045.197q2.4.041 4.802.061c2.167.02 4.332.065 6.499.117l3.654.061c3.172.544 3.172.544 6.058 2.346L642 496c.508 2.964.703 5.347.664 8.309l.015 2.435q.005 2.546-.027 5.091c-.027 2.591 0 5.178.032 7.769q-.005 2.477-.02 4.955l.03 2.336c-.047 2.204-.047 2.204-.694 6.105-2.136 2.693-2.136 2.693-5 5-3.011.703-3.011.703-6.464.805l-1.962.073c-2.192.07-4.381.1-6.574.122l-2.339.037c-6.413.095-12.825.088-19.238.076h-6.63c-6.145-.001-12.289-.01-18.433-.018q-5.993-.008-11.985-.011a61791 61791 0 0 1-71.945-.093 199284 199284 0 0 1-172.927-.363l-3.377-.009q-27.549-.066-55.098-.124-28.683-.06-57.365-.132-15.951-.04-31.904-.072-13.436-.026-26.873-.064-6.828-.02-13.658-.03a6442 6442 0 0 1-12.498-.032q-2.252-.006-4.505-.008C95.151 538.143 95.151 538.143 90 537c-2-2-2-2-2.612-3.63-.56-3.42-.571-6.822-.591-10.276l-.017-2.308q-.015-2.412-.02-4.822c-.01-2.456-.041-4.91-.073-7.366l-.015-4.692-.038-2.22c.01-2.082.01-2.082.366-5.686 1.276-2.179 1.276-2.179 3-4 8.681-2.95 20.826-1.138 29.936-1.127"/><path fill="#e7e9e8" d="M108.402 193.815c2.157-.002 4.314-.02 6.471-.04q2.066-.005 4.13-.005l3.777-.013c3.22.243 3.22.243 5.532 1.007C130 196 130 196 131.09 197.777c1.031 2.52 1.156 4.315 1.15 7.032l.009 2.923-.022 3.187v3.371c0 3.68-.016 7.359-.032 11.038l-.008 7.65a8246 8246 0 0 1-.043 18.084c-.022 6.863-.033 13.726-.043 20.59Q132.069 292.826 132 314h2a118 118 0 0 0 4.937-5.688l2.997-3.609 1.546-1.873a435 435 0 0 1 4.305-5.096 496 496 0 0 0 15.092-18.508c3.087-3.958 6.284-7.799 9.56-11.601 4.118-4.784 7.942-9.733 11.688-14.813 3.972-5.384 8.104-10.422 12.664-15.328 3.018-3.39 5.744-6.985 8.483-10.6 3.348-4.414 6.825-8.704 10.36-12.97a290 290 0 0 0 5.235-6.64l1.483-1.929a446 446 0 0 0 2.845-3.751c3.267-4.25 3.267-4.25 5.608-5.748 2.695-1.038 4.94-1.168 7.826-1.26l3.361-.118 3.572-.093 3.647-.11c3.597-.103 7.194-.188 10.791-.265l3.078-.07q3.96-.08 7.922-.118l2.35-.04c1.885-.002 3.77.104 5.65.228l3 2c-.36 3.06-.916 4.878-2.68 7.437L277.125 206l-2.465 2.914q-1.33 1.544-2.66 3.086a2529 2529 0 0 0-5.438 6.375l-1.403 1.646c-3.609 4.26-7.014 8.648-10.385 13.097-3.455 4.533-7.1 8.882-10.805 13.214-3.42 4.004-6.736 8.08-10.008 12.207-2.88 3.615-5.82 7.181-8.754 10.754-2.03 2.49-4.028 5-6.02 7.52-3.284 4.122-6.685 8.132-10.125 12.124-5.652 6.571-5.652 6.571-11.25 13.188l-2.167 2.57c-1.643 2.303-2.322 3.53-2.645 6.305.92 1.896.92 1.896 2.473 3.66l1.706 2.127 1.883 2.275q1.95 2.426 3.891 4.856l2.033 2.533c3.212 4.066 6.271 8.24 9.326 12.424l3.504 4.781 1.653 2.258c5.104 6.955 10.32 13.823 15.593 20.648 5.063 6.555 9.927 13.242 14.754 19.97 7.426 10.292 15.165 20.356 22.996 30.343q1.596 2.062 3.188 4.125l2.23 2.84c.75.98 1.498 1.962 2.27 2.972.69.894 1.382 1.787 2.094 2.708L284 432c-.219 2.262-.219 2.262-1 4l-1 1c-1.466.124-2.938.18-4.409.209l-2.843.058c-4.316.058-8.63.107-12.947.138a611 611 0 0 0-6.82.103 671 671 0 0 1-9.833.113l-3.062.084c-2.82-.008-5.33-.11-8.086-.705-4.329-2.577-7.473-6.162-10.188-10.375-3.065-4.578-6.3-8.985-9.625-13.375-6.844-9.071-13.442-18.301-19.937-27.625-2.988-4.283-6.09-8.467-9.25-12.625a1353 1353 0 0 1-11.563-15.563l-1.39-1.894-1.363-1.86-1.352-1.828a99 99 0 0 1-2.644-3.878C165.296 345.8 165.296 345.8 163 343h-4l-.75 1.625c-1.557 2.957-3.284 5.672-5.25 8.375h-2l-.817 1.793c-1.18 2.2-2.4 3.72-4.117 5.52-.85.9-.85.9-1.716 1.82L142.562 364a1736 1736 0 0 0-3.496 3.687l-1.564 1.637c-1.67 1.862-3.152 3.561-4.502 5.676-.449 2.625-.449 2.625-.385 5.515l-.03 3.348.009 3.602-.033 3.713c-.034 3.92-.05 7.84-.061 11.76q-.024 7.733-.094 15.464l.01 3.596-.031 3.357-.006 2.945c-.45 3.202-1.492 5.095-3.379 7.7-3.134 1.567-6.487 1.205-9.93 1.238l-2.384.025q-2.499.02-4.998.032c-2.546.017-5.091.061-7.637.105q-2.428.015-4.856.026l-2.304.053c-2.164-.009-2.164-.009-5.891-.479-2.45-1.84-2.45-1.84-4-4-1.322-3.966-1.141-7.759-1.134-11.893l-.007-2.79q-.007-4.646-.004-9.293l-.01-6.647q-.014-9.043-.012-18.087-.002-7.545-.008-15.089-.012-16.783-.01-33.565v-4.073q-.002-16.336-.023-32.673-.023-16.776-.02-33.552.001-9.418-.014-18.835-.014-8.86-.003-17.72.003-3.251-.007-6.502c-.008-2.96-.003-5.92.005-8.88l-.016-2.596c.029-4.977.55-9.114 2.263-13.805 2-2 2-2 4.18-2.615 5.376-.734 10.805-.57 16.222-.57M484.604 194.498q2.151-.029 4.302.006l2.308-.005q2.412.004 4.822.034c2.456.03 4.91.021 7.366.008q2.346.01 4.692.025l2.22-.008c2.927.054 5.404.333 8.142 1.394C520 198 520 198 520.366 199.823c.2 2.469.24 4.903.243 7.38l.05 2.832c.05 3.072.07 6.143.091 9.215q.042 3.173.088 6.344c.085 6.469.13 12.937.162 19.406l.016 3.061Q521.1 266.031 521 284h2l2.5-3 2.5-3h2v-2c8.902-6.836 20.14-12.724 31.332-14.336A112 112 0 0 1 578 261l2.48.05c12.366.64 25.029 5.524 35.52 11.95 15.099 10.604 26.192 23.383 34.163 40.086 2.238 5.118 3.616 10.479 4.837 15.914l.53 2.218c3.323 14.845 2.908 31.5-1.33 46.118-5.428 16.583-14.03 29.676-26.282 42.012L626 421h-2v2c-11.436 8.563-24.849 14.173-39 16-13.116.938-25.985.887-38.18-4.371-8.471-4.156-15.444-9.725-21.82-16.629l-1-3h-3l-.078 3.797-.172 4.953-.043 2.5-.098 2.422-.063 2.222C520 433 520 433 518.456 435.237 516 437 516 437 512.396 437.517q-2.151.04-4.302.014l-2.308.012q-2.412.004-4.822-.022c-2.456-.02-4.91 0-7.366.026a1407 1407 0 0 1-4.692-.016l-2.22.025c-2.082-.038-2.082-.038-5.686-.556-2.193-1.449-2.193-1.449-4-4-.596-3.11-.54-6.18-.508-9.338l-.019-2.897c-.016-3.212-.003-6.424.01-9.636q-.009-3.45-.022-6.899a3790 3790 0 0 1 .002-18.755c.01-6.535 0-13.07-.006-19.606-.008-11.679.005-23.358.025-35.037a9267 9267 0 0 0-.003-31.774q-.034-18.446-.018-36.89c.006-6.511.007-13.021-.006-19.531q-.017-9.18.02-18.36.007-3.375-.006-6.748c-.01-3.064.003-6.127.023-9.191l-.027-2.716c.029-2.277.107-4.386.535-6.622 2.454-3.468 3.346-3.909 7.604-4.502m56.646 109.627c-7.544 5.21-12.577 11.017-16.625 19.25-4.012 9.485-4.785 18.05-4.875 28.25l-.029 2.676c.048 9.516 2.02 17.262 6.45 25.703 4.375 7.169 10.138 13.372 17.345 17.746 9.265 4.662 18.303 5.98 28.535 5.562 8.652-.684 15.103-3.384 22.281-8.253 8.318-6.419 13.185-13.983 17.356-23.446 2.45-6.743 2.494-13.402 2.5-20.488l.037-2.566c.021-9.384-1.956-18.166-6.225-26.559-5.595-8.379-12.277-14.947-21-20-14.33-6.64-32.173-5.913-45.75 2.125M658 264q8.62-.185 17.242-.275 2.933-.038 5.864-.102c2.812-.061 5.624-.09 8.437-.111l2.64-.078c2.367-.002 4.499.088 6.817.566 3.506 2.498 4.821 4.628 6.682 8.498q.757 1.995 1.474 4.006a840.724 840.724 0 0 1 3.344 9.059q1.255 3.391 2.517 6.781l1.65 4.446c1.903 5.128 3.948 10.18 6.082 15.218 2.488 5.952 4.799 11.976 7.126 17.992l.796 2.053c3.487 9.003 6.832 18.04 9.944 27.18 2.143 6.237 4.58 12.325 7.166 18.392 2.155 5.074 2.155 5.074 2.727 7.781L749 387l3 1 1.094-3.828c2.523-8.4 5.499-16.65 8.406-24.922l.935-2.668a2374 2374 0 0 1 13.865-38.514 900 900 0 0 0 7.388-20.755 348 348 0 0 1 7.562-19.875l.999-2.439.954-2.253.833-1.979c1.123-2.059 2.11-3.318 3.964-4.767 6.006-1.819 12.602-1.224 18.83-1.24 2.23-.01 4.458-.041 6.688-.072q2.134-.01 4.267-.016l3.903-.028C835 265 835 265 837.45 266.52L839 268c-.606 3.489-1.516 6.548-2.89 9.809-.378.905-.756 1.81-1.144 2.743l-1.216 2.885c-2.678 6.434-5.282 12.853-7.562 19.438-1.446 4.17-3.036 8.03-5.111 11.917-1.264 2.592-2.275 5.228-3.292 7.927a967 967 0 0 1-5.914 15.152l-.83 2.073q-1.3 3.248-2.604 6.493l-4.687 11.7q-2.98 7.43-5.945 14.867a4556 4556 0 0 1-15.797 39.082c-3.152 7.724-6.168 15.492-9.133 23.289C756.98 477.051 756.98 477.051 745 491h-2c-.235.579-.47 1.158-.71 1.754-3.464 6.033-11.184 10.612-17.102 14.156-4.54 2.262-9.321 3.71-14.188 5.09l-2.395.691c-5.458 1.33-10.887 1.539-16.48 1.621l-2.237.054c-3.125-.004-5.512-.18-8.333-1.573C680 511 680 511 679.262 508.898c-.37-4.096-.446-8.16-.45-12.273l-.037-2.5c-.012-5.084.37-9.365 2.225-14.125 3.96-2.359 7.931-3.24 12.375-4.375 6.634-1.785 11.913-4.089 16.973-8.82 6.372-6.788 12.304-14.739 15.182-23.715.852-3.79.282-7.353-.53-11.09-1.534-4.532-3.375-8.913-5.25-13.312-.478-1.147-.956-2.294-1.45-3.475q-1.437-3.445-2.893-6.883a1305 1305 0 0 1-3.934-9.435c-2.5-6.008-5.138-11.95-7.785-17.895a669 669 0 0 1-10.908-26.027c-2.273-5.76-4.69-11.438-7.202-17.097-2.472-5.582-4.79-11.222-7.094-16.875-1.578-3.856-3.218-7.663-4.984-11.438-2.57-5.539-4.72-11.222-6.903-16.92a228 228 0 0 0-6.554-15.381L659 275l-1.2-2.418c-.99-3.192-.428-5.34.2-8.582"/><path fill="#e7e9e8" d="m373 261 2.863.05c13.882.658 27.26 5.952 39.137 12.95 3.578 2.432 6.804 5.087 10 8l2.742 2.496c11.06 10.555 19.288 22.772 24.219 37.344A122 122 0 0 1 454 330l.621 2.754c2.89 14.652 1.562 28.804-1.621 43.246l-.586 2.762C449.33 390.879 442.074 401.672 434 411l-2.25 3.063c-8.727 10.263-22.064 16.407-34.312 21.25-16.082 5.407-35.513 5.375-52.18 2.503C329.93 433.976 315.35 425.985 304 415c-11.022-12.303-19.504-26.8-23.422-42.883-3.17-17.097-2.738-35.08 2.559-51.68C289.08 304.24 298.867 290.204 312 279c11.645-9.225 26.077-15.215 40.766-17.414 6.76-.574 13.45-.77 20.234-.586m-33.496 45.063c-6.652 5.147-10.433 11.132-14.145 18.617-3.472 8.48-4.889 15.956-4.796 25.132l.022 3.2c.217 10.257 2.17 18.284 7.228 27.3 4.882 7.514 9.812 13.034 17.699 17.438 8.283 4.161 16.034 5.575 25.265 5.46 7.378-.482 13.937-2.078 20.16-6.147A128 128 0 0 0 395 394l2.5-1.863c6.323-5.404 11.527-13.354 14.5-21.137 1.877-7.002 2.338-13.842 2.313-21.062l.048-2.815c.005-6.26-1.025-11.328-3.361-17.123l-.922-2.496C407.526 321.52 404.215 315.973 400 311h-2v-2c-6.233-5.205-12.819-8.993-20.797-10.602-14.05-1.747-25.902-.39-37.7 7.664"/><path fill="#ffd715" d="M896.625 36.5c3.375.5 3.375.5 5.036 1.666 6.28 5.667 12.268 11.617 18.241 17.604l3.39 3.385q3.525 3.524 7.046 7.053 4.519 4.525 9.046 9.042 3.488 3.483 6.971 6.972l3.339 3.336q2.321 2.318 4.638 4.644l2.665 2.668C959 95 959 95 960 97c.326 2.814.326 2.814 0 6-1.732 2.487-1.732 2.487-4.212 4.973l-1.373 1.402c-1.52 1.544-3.06 3.065-4.601 4.587a1628.407 1628.407 0 0 1-12.232 12.262c-3.13 3.114-6.244 6.243-9.361 9.37a5905 5905 0 0 1-15.743 15.71 4746 4746 0 0 0-18.18 18.19 5352 5352 0 0 1-15.602 15.618 2810 2810 0 0 0-9.32 9.33q-4.37 4.395-8.78 8.75a461 461 0 0 0-3.215 3.223 392 392 0 0 1-4.408 4.373l-2.486 2.48C848 215 848 215 844.881 215.403 842 215 842 215 838.93 212.77q-1.55-1.457-3.055-2.958l-1.55-1.462c-3.059-2.929-5.688-6.034-8.325-9.35a77 77 0 0 0-3.5-3.062c-5.33-4.55-10.197-9.55-15.112-14.536a527 527 0 0 0-3.92-3.906c-3.173-3.209-6.193-6.549-9.215-9.899-2.859-3.145-5.815-6.086-8.94-8.972-2.349-2.358-3.24-3.391-4.25-6.625 2.626-8.404 12.06-15.267 18.155-21.347l3.038-3.043q4.09-4.097 8.187-8.187 4.294-4.291 8.585-8.587 7.195-7.198 14.397-14.39 8.327-8.322 16.647-16.65 7.155-7.161 14.314-14.317 4.273-4.27 8.541-8.543 4.005-4.008 8.015-8.01 1.474-1.47 2.944-2.945 2.003-2.004 4.01-4.004l2.269-2.268c2.222-2.07 3.47-2.64 6.46-3.209"/><path fill="#ff7d9d" d="m109.63 490.88 2.774-.003q4.554 0 9.11.01l6.566-.001q8.88.001 17.762.013 9.292.007 18.586.008 17.584.005 35.167.021 20.025.015 40.048.022 41.18.016 82.357.05v47q-43.158.035-86.317.052-20.04.007-40.08.023-17.469.015-34.937.02-9.248 0-18.495.01-8.71.012-17.419.008-3.19 0-6.383.006-4.369.007-8.738.001l-2.53.01C95.486 538.1 95.486 538.1 90 537c-2-2-2-2-2.612-3.63-.56-3.42-.571-6.822-.591-10.276l-.017-2.308q-.015-2.412-.02-4.822c-.01-2.456-.041-4.91-.072-7.366q-.01-2.346-.016-4.692l-.038-2.22c.014-2.998.106-5.227 1.602-7.865L90 492c2.142-.605 2.142-.605 4.586-.742l2.7-.168c4.118-.137 8.224-.225 12.345-.21"/><path fill="#48c477" d="M484 491q21.729-.036 43.457-.052 10.095-.007 20.191-.023c17.451-.03 34.901-.025 52.352.075l3.148.018c5.478.035 10.954.093 16.43.195q2.344.04 4.687.061c2.092.02 4.182.066 6.273.119l3.455.062c3.007.545 3.007.545 5.87 2.347L642 496c.508 2.964.703 5.347.664 8.309l.015 2.435q.005 2.546-.027 5.091c-.027 2.591 0 5.178.032 7.769q-.005 2.477-.02 4.955l.03 2.336c-.047 2.204-.047 2.204-.694 6.105-2.164 2.694-2.164 2.694-5 5-2.767.702-2.767.702-6.03.804l-1.919.073c-2.35.074-4.7.101-7.051.123l-2.934.039c-7.855.094-15.71.103-23.565.095q-5.157-.002-10.314.002-8.642.003-17.285-.006-9.963-.007-19.927.002-8.601.007-17.203.003-5.118-.003-10.235.001-5.697.003-11.392-.007l-3.384.007-3.154-.009-2.712-.001c-3.648-.159-7.272-.673-10.895-1.126v-45l-5-1z"/><path fill="#ff7d9d" d="m109.63 490.88 2.774-.003q4.554 0 9.11.01l6.566-.001q8.88.001 17.762.013 9.292.007 18.586.008 17.584.005 35.167.021 20.025.015 40.048.022 41.18.016 82.357.05v47q-43.158.035-86.317.052-20.04.007-40.08.023-17.469.015-34.937.02-9.248 0-18.495.01-8.71.012-17.419.008-3.19 0-6.383.006-4.369.007-8.738.001l-2.53.01C95.486 538.1 95.486 538.1 90 537c-2-2-2-2-2.612-3.63-.56-3.42-.571-6.822-.591-10.276l-.017-2.308q-.015-2.412-.02-4.822c-.01-2.456-.041-4.91-.072-7.366q-.01-2.346-.016-4.692l-.038-2.22c.014-2.998.106-5.227 1.602-7.865L90 492c2.142-.605 2.142-.605 4.586-.742l2.7-.168c4.118-.137 8.224-.225 12.345-.21M99 494v2l-4 1-1-2h-3c-1.64 3.279-1.12 6.906-1.098 10.508l.005 2.547c.005 2.69.018 5.38.03 8.07q.009 2.733.014 5.465.017 6.705.049 13.41c3.688.854 7.07 1.115 10.852 1.089l3.555-.017 3.877-.034 4.109-.025q5.592-.034 11.184-.08c3.953-.032 7.906-.057 11.859-.083q10.028-.069 20.055-.147 10.14-.079 20.282-.145c38.416-.253 76.82-.602 115.227-1.558v-1l-146-1 1-1c1.779-.158 3.563-.251 5.348-.316l3.271-.127 3.444-.12 3.455-.13q4.24-.16 8.482-.307v2q10.227.037 20.453.055 3.481.008 6.964.02 4.993.018 9.985.023l3.166.015h2.912l2.577.007L218 532l1-1c2.952-.125 5.881-.186 8.834-.205l2.809-.03q4.617-.047 9.236-.081l6.385-.063q8.422-.083 16.843-.153 8.586-.077 17.172-.161 16.86-.162 33.721-.307v-5q-41.945-.07-83.89-.104-19.476-.014-38.95-.047-16.971-.03-33.942-.037-8.988-.003-17.978-.023-8.455-.02-16.911-.015-3.108 0-6.216-.012c-2.824-.01-5.647-.008-8.47-.003l-2.5-.017c-3.145.016-5.742.098-8.683 1.273L95 527v-5l3.31.006q39.848.066 79.694.098 19.27.014 38.54.047 16.794.03 33.587.037 8.895.003 17.788.023 8.37.02 16.739.015 3.073 0 6.146.012c2.796.01 5.592.008 8.388.003l2.459.017c4.49-.024 8.154-.45 12.349-2.258l2-2c.322-2.787.322-2.787.25-6l.016-3.25c-.222-3.123-.653-5.931-1.283-8.984l-.555-2.71L314 495c-21.66-1.26-43.315-1.132-65.002-1.101q-7.934.007-15.867.008-14.964.005-29.928.021a62125 62125 0 0 1-34.121.022q-35.041.016-70.082.05"/><path fill="#57a8ed" d="M322 491h162v3H336l1 26 3 1v3h47v1l-1.802.025q-9.27.13-18.541.292-3.462.058-6.923.105c-3.314.045-6.627.103-9.941.164l-3.135.035-2.911.06-2.564.04c-2.474.152-2.474.152-5.183 2.279v6l28 1v2h123v1H322z"/><path fill="#ff7d9d" d="m109.63 490.88 2.774-.003q4.554 0 9.11.01l6.566-.001q8.88.001 17.762.013 9.292.007 18.586.008 17.584.005 35.167.021 20.025.015 40.048.022 41.18.016 82.357.05v47q-43.158.035-86.317.052-20.04.007-40.08.023-17.469.015-34.937.02-9.248 0-18.495.01-8.71.012-17.419.008-3.19 0-6.383.006-4.369.007-8.738.001l-2.53.01C95.486 538.1 95.486 538.1 90 537c-2-2-2-2-2.612-3.63-.56-3.42-.571-6.822-.591-10.276l-.017-2.308q-.015-2.412-.02-4.822c-.01-2.456-.041-4.91-.072-7.366q-.01-2.346-.016-4.692l-.038-2.22c.014-2.998.106-5.227 1.602-7.865L90 492c2.142-.605 2.142-.605 4.586-.742l2.7-.168c4.118-.137 8.224-.225 12.345-.21M89 495q-.111 8.277-.165 16.553a978 978 0 0 1-.061 5.634 947 947 0 0 0-.067 8.086c-.015.843-.03 1.686-.047 2.554-.036 2.61-.036 2.61.34 6.173l3 2c3.036.19 5.98.26 9.017.24l2.829.006c3.141.003 6.283-.008 9.424-.019h6.74c6.112.002 12.223-.01 18.334-.024 6.382-.013 12.764-.014 19.147-.016q16.074-.009 32.147-.036a37101 37101 0 0 1 45.414-.05q42.474-.033 84.948-.101.008-3.527.014-7.053l.007-3.967c-.032-5.98-.265-11.945-.521-17.917l-.145-3.553q-.173-4.256-.355-8.51c-21.099-5.808-47.823-2.165-69.58-2.167l-9.6-.006q-16.78-.014-33.559-.012-15.602-.001-31.203-.026-13.458-.019-26.914-.018-8.012.002-16.024-.013-7.51-.014-15.019-.003-2.751.003-5.501-.007c-2.506-.008-5.011-.003-7.517.005l-2.188-.016c-4.689.032-8.486.814-12.895 2.263"/><path fill="#ffd715" d="M725 239c2.904 2.289 5.518 4.408 7.813 7.313 2.832 3.412 5.97 6.252 9.355 9.109 1.705 1.468 3.338 2.894 4.832 4.578v2l3 1v2h2l2 4c-1.937 2.438-1.937 2.438-5 5-5.975 1.59-11.563.858-17.465-.582l-2.301-.528a564 564 0 0 1-4.757-1.123 672 672 0 0 0-7.3-1.699q-2.321-.54-4.642-1.088l-2.203-.508c-1.792-.436-3.564-.948-5.332-1.472l-2-2c.082-2.307.082-2.307 1-5 2.041-2.495 2.041-2.495 4.691-5.082l1.409-1.391a636 636 0 0 1 4.462-4.34l3.022-2.966A1316 1316 0 0 1 725 239"/><path fill="#61c086" d="M484 491q21.729-.036 43.457-.052 10.095-.007 20.191-.023c17.451-.03 34.901-.025 52.352.075l3.148.018c5.478.035 10.954.093 16.43.195q2.344.04 4.687.061c2.092.02 4.182.066 6.273.119l3.455.062c3.007.545 3.007.545 5.87 2.347L642 496c.508 2.964.703 5.347.664 8.309l.015 2.435q.005 2.546-.027 5.091c-.027 2.591 0 5.178.032 7.769q-.005 2.477-.02 4.955l.03 2.336c-.047 2.204-.047 2.204-.694 6.105-2.164 2.694-2.164 2.694-5 5-2.767.702-2.767.702-6.03.804l-1.919.073c-2.35.074-4.7.101-7.051.123l-2.934.039c-7.855.094-15.71.103-23.565.095q-5.157-.002-10.314.002-8.642.003-17.285-.006-9.963-.007-19.927.002-8.601.007-17.203.003-5.118-.003-10.235.001-5.697.003-11.392-.007l-3.384.007c-5.683-.016-11.14-.283-16.761-1.136v-1h141v-2h5v-2h2l1-36h-9a177 177 0 0 1-6.062-.5l-2.848-.281L618 496v-1l-2-.01q-24.1-.121-48.2-.278-11.653-.076-23.308-.134-10.158-.05-20.316-.12a3293 3293 0 0 0-10.757-.061c-4.003-.016-8.006-.046-12.01-.078l-3.6-.007c-1.093-.01-2.185-.022-3.31-.034l-2.87-.016c-2.852-.284-5.03-1.078-7.629-2.262z"/><path fill="#e7e9e8" d="M108.402 193.815c2.157-.002 4.314-.02 6.471-.04q2.066-.005 4.13-.005l3.777-.013c3.22.243 3.22.243 5.532 1.007C130 196 130 196 131.092 197.694c1.157 2.937 1.148 5.294 1.135 8.452v3.76l-.032 4.047-.008 4.153c-.008 3.637-.028 7.273-.05 10.91-.02 3.713-.03 7.427-.04 11.14Q132.066 251.08 132 262h-1l-.06-3.9c-.076-4.769-.165-9.538-.257-14.307q-.059-3.097-.105-6.195c-.045-2.967-.103-5.933-.164-8.899l-.035-2.803-.06-2.608-.04-2.295c-.176-2.31-.176-2.31-2.279-4.993-.414-2.918-.414-2.918-.625-6.188l-.227-3.292L127 204h2v-3h-2v-2h-3v-2l-3 1c-1.92.083-3.84.107-5.762.098l-3.388-.01-3.538-.026-3.572-.013q-4.37-.018-8.74-.049v3l2 1h-4l-1-2h-5a103130 103130 0 0 0 .317 96.49l.008 2.05q.059 16.418.102 32.835.047 16.854.116 33.708.039 9.462.06 18.926.02 8.91.064 17.82.014 3.267.017 6.534c.004 2.979.02 5.958.038 8.937l-.006 2.597c.051 5.593.863 10.695 2.284 16.103l-3-1c-1.764-2.998-2.136-5.719-2.252-9.125q-.015-2.505-.002-5.009l-.01-2.795c-.007-3.091-.001-6.182.005-9.274q-.004-3.324-.01-6.647c-.01-6.021-.006-12.042 0-18.062.005-6.3 0-12.598-.002-18.897a27075 27075 0 0 1 .012-33.775q.013-15.302-.002-30.605-.016-17.777-.009-35.554.007-9.408-.003-18.815-.007-8.848.01-17.695.004-3.246-.002-6.493c-.006-2.955.001-5.91.011-8.866l-.013-2.593c.032-4.972.556-9.108 2.267-13.795 2-2 2-2 4.18-2.615 5.376-.734 10.805-.57 16.222-.57"/><path fill="#ea8ea4" d="m109.63 490.88 2.774-.003q4.554 0 9.11.01l6.566-.001q8.88.001 17.762.013 9.292.007 18.586.008 17.584.005 35.167.021 20.025.015 40.048.022 41.18.016 82.357.05v47h-1l-1-44a211080 211080 0 0 0-95.374-.055h-2.025q-16.231-.008-32.462-.022-16.656-.014-33.311-.017-9.355 0-18.71-.012-8.802-.01-17.605-.007-3.233 0-6.466-.006-4.41-.007-8.822-.001l-2.588-.01-2.4.007-2.056-.001c-2.748.156-5.466.671-8.181 1.124v39l7 2v1c-3.375.125-3.375.125-7 0-2-2-2-2-2.612-3.63-.56-3.42-.571-6.822-.591-10.276l-.017-2.308q-.015-2.412-.02-4.822c-.01-2.456-.041-4.91-.072-7.366q-.01-2.346-.016-4.692l-.038-2.22c.014-2.998.106-5.227 1.602-7.865L90 492c2.142-.605 2.142-.605 4.586-.742l2.7-.168c4.118-.137 8.224-.225 12.345-.21"/><path fill="#73acdc" d="M322 491h162v3H325v44h-3z"/><path fill="#e7e9e8" d="M484.604 194.498q2.151-.029 4.302.006l2.308-.005q2.412.004 4.822.034c2.456.03 4.91.021 7.366.008q2.346.01 4.692.025l2.22-.008c2.927.054 5.404.333 8.142 1.394C520 198 520 198 520.366 199.823c.2 2.469.24 4.903.243 7.38l.05 2.832c.05 3.072.07 6.143.091 9.215q.042 3.173.088 6.344c.085 6.469.13 12.937.162 19.406l.016 3.061Q521.1 266.031 521 284h2a159 159 0 0 0 5-6l2 1c-.375 2.375-.375 2.375-1 5l-2 2c-3.562.687-3.562.687-7 1l-1-1a211 211 0 0 1-.205-8.192l-.03-2.601q-.047-4.277-.081-8.555l-.063-5.914q-.082-7.8-.153-15.6-.077-7.953-.161-15.906-.162-15.615-.307-31.232-7.422-.037-14.844-.055-2.526-.008-5.052-.02c-2.417-.013-4.835-.018-7.252-.023l-2.29-.015c-3.908-.08-3.908-.08-7.562 1.113l-2-1-1 163h-1q-.141-31.58-.207-63.16c-.02-9.774-.049-19.55-.095-29.324q-.06-12.779-.074-25.556c-.006-4.512-.018-9.024-.047-13.535q-.039-6.368-.03-12.736 0-2.339-.024-4.677a441 441 0 0 1-.004-6.38l-.011-3.61C477 199 477 199 478.805 196.617 481 195 481 195 484.604 194.498M307 284v3c-1.242 1.824-1.242 1.824-2.875 3.688l-1.617 1.886L301 294h-2v2h2l-1 2-2-1v2h2v9h-2l-1-3-3 1-1-2-.55 2.809-.762 3.628-.739 3.622L290 317l-3 1v3l1-2h2c-1.002 3.793-1.81 6.715-4 10h-2l.254 1.723c.658 4.987.82 9.302-.254 14.277l-1.125 2.188L282 349c.257 2.03.257 2.03 1 4 .625 2.188.625 2.188 1 4l-1 1c.012 2.5.098 4.945.25 7.438l.082 2.103c.103 2.265.103 2.265.668 5.459 2.773 1.938 2.773 1.938 5 3l-1 1.563c-1.32 3.217-1.132 5.994-1 9.437h2l1 7c-5.647-6.783-8.289-16.443-10-25-2.488-17.557-1.765-35.202 4.375-51.937C289.587 304.489 296.919 293.23 307 284"/><path fill="#57a8ed" d="M485 493h4v45l-4-1v-4h-97l-1-2q18.919-.034 37.838-.052 8.784-.007 17.568-.023 8.471-.016 16.943-.02 3.237-.003 6.476-.01 4.521-.01 9.044-.009l2.726-.01c6.177.01 6.177.01 8.405 1.124z"/><path fill="#48c477" d="M489 494h3v24h7l-1 5-6 1 1 11 137 1v1H489z"/><path fill="#e7e9e8" d="M519 413c2-.04 4-.043 6 0v2h2v3h4v3h2v2h2v3c-3.158-1.398-5.323-3.052-7.75-5.5l-1.86-1.844L524 417v-2h-3l-.078 3.797-.172 4.953-.043 2.5-.098 2.422-.063 2.222C520 433 520 433 518.456 435.237 516 437 516 437 512.396 437.517q-2.151.04-4.302.014l-2.308.012q-2.412.004-4.822-.022c-2.456-.02-4.91 0-7.366.026q-2.346-.004-4.692-.016l-2.22.025c-2.082-.038-2.082-.038-5.686-.556-2.47-1.845-2.47-1.845-4-4-.39-3.016-.39-3.016-.25-6.25l.11-3.266L477 421h1l.148 2.082.227 2.73c.07.894.14 1.787.21 2.708.281 2.724.281 2.724 2.415 5.48l1.697-.49c4.21-.933 8.507-.695 12.803-.697l2.879-.038 2.777-.005 2.526-.013c2.516.264 4.144.98 6.318 2.243v-2h5v-14l1 2h2l-.062-3.437L518 414zM816.83 264.76c2.23-.01 4.458-.041 6.688-.072q2.134-.01 4.267-.016l3.903-.028C835 265 835 265 837.45 266.52L839 268c-.665 4.389-2.188 7.981-4 12-1.17-3.51-.673-5.411 0-9v-3l-1.937.092q-4.438.207-8.875.408l-3.045.145c-5.975.268-11.893.366-17.872.177-2.554.014-2.554.014-5.271 2.178v3a181 181 0 0 1-4 4c-1.125 1.833-1.125 1.833-2 4l-1.437 3.188C786.807 294.09 784.8 302.248 785 312l-2 1-2-1v5l-4 1c4.04-13.778 8.745-27.298 14.25-40.562l.997-2.434.956-2.258.833-1.979c1.123-2.059 2.11-3.318 3.964-4.767 6.006-1.819 12.602-1.224 18.83-1.24"/><path fill="#61c086" d="M484 491q21.729-.036 43.457-.052 10.095-.007 20.191-.023c51.585-.086 51.585-.086 72.04.343q2.364.048 4.728.082c2.107.032 4.212.083 6.318.14l3.486.079L637 492c1.892 1.532 1.892 1.532 3 3l-3.128-.495c-6.259-.775-12.531-.62-18.828-.587l-4.206.01q-4.507.01-9.014.027c-4.753.019-9.506.028-14.259.036q-20.265.037-40.531.105-11.208.037-22.417.052-7.086.01-14.171.044-4.406.016-8.811.016c-2.01.003-4.018.016-6.027.03l-3.632-.004-3.15.01c-2.961-.256-5.142-1-7.826-2.244z"/><path fill="#e7e9e8" d="m134 370 2 1-1.476 1.655c-1.692 2.247-1.692 2.247-1.903 4.918l-.006 2.942-.03 3.348.009 3.602-.033 3.713c-.034 3.92-.05 7.84-.061 11.76q-.024 7.733-.094 15.464l.01 3.596-.031 3.357-.006 2.945c-.45 3.202-1.492 5.095-3.379 7.7-3.012 1.506-6.113 1.122-9.414 1.098l-2.211-.005c-2.333-.005-4.667-.018-7-.03q-2.37-.009-4.742-.014Q99.816 437.032 94 437v-1l2-.06c3.021-.096 6.042-.205 9.063-.315 1.038-.03 2.076-.062 3.146-.094 5.629-.214 10.443-.784 15.791-2.531h3c1.375-2.294 1.992-3.9 2.207-6.587l-.06-2.96-.049-3.367-.078-3.621q-.046-3.788-.088-7.576c-.056-3.986-.118-7.971-.2-11.957-.072-3.843-.113-7.686-.15-11.53l-.097-3.627-.02-3.357-.053-2.958L129 373c2.408-1.901 2.408-1.901 5-3M555 294h7l-1 3 2.098-.324c8.79-1.077 16.412-.064 24.902 2.324l3 2v2h5v3h4l1 5 3 1 1 3h4l3 1v2l3-1c-.898 6.672-.898 6.672-1.562 8.813-.612 3.058-.28 5.838 0 8.937l.308 3.547L614 341h-1l-.75-3.875c-1.958-8.615-4.938-15.341-10.664-22.117C600 313 600 313 599.039 310.868L598 309c-1.823-1.128-1.823-1.128-4-2l-2.48-1.437c-8.547-4.933-14.989-6.633-24.832-6.813-6.72.081-13.117.88-19.688 2.25v-2l8-2zM358 290l7 3v2h3v2h4v-2l-3-1 4-1v2l6-1v2l2.875-.125L385 296l2 2v3l6-1 .813 2.438L395 305l3 1v3a99 99 0 0 1-6.48-3.437c-8.553-4.937-15.046-6.627-24.895-6.875-8.03.144-14.697 1.1-21.746 5.07A178 178 0 0 0 337 309c0-3 0-3 1-6 2.766-1.352 2.766-1.352 6.25-2.625 1.14-.425 2.28-.85 3.453-1.29 2.776-.913 5.42-1.598 8.297-2.085l-1-3c1.438-2.187 1.438-2.187 3-4M263.078 193.93q3.96-.08 7.922-.118l2.35-.04c1.885-.002 3.77.104 5.65.228l3 2-1 5-1-2c-7.02-1.154-14.229-1.046-21.324-.969-8.564-.073-17.124-.602-25.676-1.031v2h-2v3l-3 1c-1.01 1.725-2.014 3.454-2.96 5.215-1.367 2.348-2.964 4.044-5.04 5.785l-3 1a90 90 0 0 0-4 4c1.328-3.868 2.952-6.347 5.75-9.313a97 97 0 0 0 8.828-11.058c1.708-1.956 3.016-2.646 5.422-3.629 2.631-.319 2.631-.319 5.629-.414l3.361-.118 3.572-.093 3.647-.11c4.622-.132 9.246-.23 13.869-.336M363.914 260.918c3.034-.043 6.053 0 9.086.082l2.863.05c13.67.648 27.526 5.786 39.137 12.95 1.718 1.614 3.401 3.268 5 5-6.75-1.875-6.75-1.875-9-3v-2h-5v-2l-5-1v-2h-6v-2h-5v-2c-4.953-.996-9.655-1.131-14.68-1.098l-2.463.005c-2.577.005-5.155.018-7.732.03q-2.632.008-5.266.014-6.43.017-12.859.049v2h2v2h-5l-1 3-2.5-.5c-3.913-.559-7.552-.568-11.5-.5 3.554-3.173 7.572-4.347 12.063-5.625l2.305-.663c6.895-1.909 13.41-2.593 20.546-2.794M481 195q7.366-.111 14.734-.165 2.505-.022 5.01-.061a746 746 0 0 1 7.21-.067c.744-.015 1.489-.03 2.257-.047 2.972 0 5.468.217 8.254 1.283C520 198 520 198 520.365 199.823c.202 2.47.24 4.903.244 7.38l.05 2.832c.05 3.072.07 6.143.091 9.215q.042 3.173.088 6.344c.085 6.469.13 12.937.162 19.406l.016 3.061Q521.1 266.031 521 284h2a159 159 0 0 0 5-6l2 1c-.375 2.375-.375 2.375-1 5l-2 2c-3.562.688-3.562.688-7 1l-1-1a211 211 0 0 1-.205-8.192l-.03-2.601q-.047-4.277-.081-8.555l-.063-5.914q-.083-7.8-.153-15.6-.077-7.953-.161-15.906-.162-15.615-.307-31.232h-3v-2h-34z"/><path fill="#7c9ece" d="M322 491h54v1l-1.764.031q-9.075.163-18.152.341-3.389.065-6.777.125-4.866.088-9.733.187l-3.068.05-2.851.06-2.51.048c-2.33.083-2.33.083-5.145 1.158l-1 44h-3z"/><path fill="#e7e9e8" d="m715 406 3 2c.688 2.625.688 2.625 1 5l4-1v3l3 1-.29 2.012c-.713 5.56-.713 5.56.102 11.05L727 431l2 1c.938 3.907 1.084 6.63.188 10.563L728 446l-1.125 3.438L726 452h-3v2h2v2h-2v2l-2 1v5h-2l-1 2v-3h-3c1.462-3.05 3.144-5.883 4.938-8.75 2.567-4.298 4.957-8.336 6.062-13.25-.235-7.944-2.876-14.228-6.062-21.437q-1.398-3.216-2.786-6.434l-1.25-2.842C715 408 715 408 715 406M649 313c2.63 2.63 3.005 4.923 4 8.5l1 3.531c2.26 8.75 3.388 16.975 3.375 26.031l-.003 3.307c-.179 12.347-2.94 23.14-7.372 34.631l-1-3c.605-2.075 1.26-4.135 1.938-6.187 5.51-19.25 3.043-43.482-.938-62.813h-2zM532 388l1.434 1.137c7.716 5.97 15.795 11.222 25.566 12.863 9.175.796 18.47.83 27-3a126 126 0 0 0 9-5l1 3h-2v2l-3 2h-3v2h-3v2l2 1-1.66-.219c-5.244-.614-10.31-.777-15.59-.656-7.985.049-16.52-.5-23.781-4.145-1.368-.93-2.674-1.95-3.969-2.98-1.646-.716-3.307-1.403-5-2v2l-5-2 2-5h-2zM529 313l2 1-1.68 3.113c-6.244 11.818-8.43 21.133-8.57 34.512l-.03 2.677c.044 8.348 1.304 15.5 5.217 22.948l1.528 2.953A193 193 0 0 0 532 388h-5l-.875-2.937L525 382l-2-1c-3.678-5.91-3.8-13.794-4.222-20.566-.116-3.647-.15-7.285-.153-10.934l-.074-3.684c-.028-8.577 1.48-15.777 4.449-23.816h-2v-2h3l.25-2.375L525 315c1.938-1.375 1.938-1.375 4-2M391 396l2 1-2.312 1.688c-2.65 2.279-4.07 4.248-5.688 7.312l-6-2-2 5-13-1v-2l-8-1v-2l-2.312.25L351 403c-1.668-2.016-1.668-2.016-3-4l2.64.656c11.573 2.705 21.125 3.261 32.669.293 2.787-.878 2.787-.878 5.414-2.617zM409 326h2v3h2c2.648 8.73 3.388 16.658 3.188 25.75l-.042 3.594q-.051 4.328-.146 8.656h-2v6l-3 1 1 5h-2l-.312 1.813c-.787 2.502-1.823 3.4-3.688 5.187l-1 3h-3l-2 3h-2v2l-5 2c2.005-2.6 3.989-4.99 6.375-7.25 5.97-6.254 10.066-13.495 12.625-21.75 1.25-5.567 1.22-11.134 1.25-16.812l.063-2.87c.03-5.57-.564-10.141-2.568-15.352-.746-1.969-1.272-3.916-1.745-5.966M763 455l1 2c-3.925 12.167-10.674 24.305-19 34h-2l-.75 1.875C741 495 741 495 738.875 496.25L737 497v-3h2l1-6 4-1 1-5h5l1-7h2l.375-3.312C754 468 754 468 756 465l-1.062-1.75L754 461c.375-2.25.375-2.25 1-4 2 2 2 2 3 5h2l.375-1.812C761 458 761 458 763 455"/><path fill="#57a8ed" d="M325 494h5l-3 1v36l5 1v3l32 1v1q-8.09.037-16.18.055-2.755.008-5.51.02c-2.633.013-5.266.018-7.9.023l-2.503.015c-1.97 0-3.939-.051-5.907-.113l-1-1a271 271 0 0 1-.098-9.285l.005-2.82c.005-2.986.018-5.972.03-8.957q.008-3.03.014-6.057.017-7.44.049-14.881"/><path fill="#e7e9e8" d="M714 463c0 3 0 3-1 5h-2v3l-2 .75c-2.331.971-4.464 2.01-6.687 3.188C696.964 477.652 691.048 480 685 480v2h-2c-2.114 4.228-1.23 9.793-1.25 14.438l-.062 3.51-.016 3.36-.028 3.088c.164 2.602.164 2.602 1.571 4.441 1.754 1.319 1.754 1.319 4.053 1.504l2.619-.048 2.842-.03c.976-.024 1.952-.05 2.958-.076l2.995-.04q3.66-.054 7.318-.147v1c-4.534 1.118-8.921 1.218-13.562 1.25l-2.288.063c-3.212.022-5.704-.095-8.615-1.516C680 511 680 511 679.262 508.898c-.37-4.096-.446-8.16-.45-12.273l-.037-2.5c-.012-5.084.37-9.365 2.225-14.125 3.96-2.359 7.931-3.24 12.375-4.375 7.088-1.876 12.95-4.75 18.188-9.937zM449 323h3c5.219 16.401 5.096 32.755 1.852 49.488-.69 2.845-1.376 5.015-2.852 7.512l.5-3.812c.638-6.166.555-12.308.463-18.498-.043-4.078.164-7.69 1.037-11.69a39.3 39.3 0 0 0-2-11h-3v-3h2v-3h-2z"/><path fill="#ea8ea4" d="M231 491h91v47h-1l-1-44c-3.204-1.602-6.692-1.18-10.213-1.205l-2.573-.03q-4.22-.047-8.44-.081l-5.844-.063q-7.698-.082-15.397-.153-7.853-.077-15.705-.161-15.414-.162-30.828-.307z"/><path fill="#e7e9e8" d="M785 398h2a313 313 0 0 1-6.18 17.332l-.893 2.297-1.86 4.772q-1.402 3.591-2.797 7.187c-3.316 8.518-6.697 16.998-10.27 25.412l-1-3c.688-1.967 1.386-3.932 2.168-5.863.782-2.01 1.395-3.994 1.957-6.074C769 437 769 437 770 436c.49-2.315.899-4.638 1.305-6.969L772 427l3-1 .332-2.266.48-2.984.458-2.953c.762-2.92 1.768-4.54 3.73-6.797h-2c.562-3.936 1.617-6.792 4-10h3zM322 367c2.2 2.2 2.63 3.534 3.625 6.438 2.756 7.053 6.85 13.42 12.531 18.484 1.908 1.438 3.846 2.769 5.844 4.078a395 395 0 0 1 4 3q-2.438-.464-4.875-.937l-2.742-.528C338 397 338 397 336 396c-.625-2.562-.625-2.562-1-5h-2v-2l-5-1v-4l-3.312.5c-3.307.448-6.361.5-9.688.5l2-5 2 1v2h2l-2-6 3 1v3h2l-.437-2.3-.563-3.012-.562-2.989C322 370 322 370 322 367"/><path fill="#47be8e" d="M489 494h3v24h7l-1 5-3 1-1-3-3-1v16l-2 1z"/><path fill="#e7e9e8" d="M331 432c5.513-.3 9.573.263 14.727 2.246 4.967 1.648 10.003 1.91 15.203 2.07l3.906.127 4.039.12 4.11.13q5.007.159 10.015.307v-2h12c-4.848 3.232-10.272 3.561-16 4-16.575.743-32.503.515-48-6zM665 286h3l3 7 2-2 1 3-1 4a195 195 0 0 0 0 7h2v3h2v3h2c.702 1.41 1.386 2.828 2.063 4.25l1.16 2.39L683 320a80 80 0 0 1-1 4l1.5 3 1.5 3c-.406 2.188-.406 2.188-1 4-4.835-10.742-9.297-21.611-13.623-32.568l-1.24-3.135-1.103-2.802c-.978-2.47-.978-2.47-2.168-4.639C665 289 665 289 665 286M420 279c4.037 1.619 6.806 4.463 9.813 7.5l1.598 1.603c4.463 4.572 8.187 9.483 11.589 14.897l-1 2-2-4h-2v-2l-4-1-1 2v-6l-4 2 2 1v2c-1.875.563-1.875.563-4 1l-2-1v-4h2l-1.437-2.875L423 287h2v-2h-2zM614 341h1v17h2c.267 4.274.08 7.174-1.625 11.125-.867 1.966-.867 1.966-1.375 3.875.772 2.767.772 2.767 2 5l-1 3-4-3v2h-3l-.375 1.75c-.95 3.421-2.107 5.732-4.625 8.25l-1 2c-2.562.625-2.562.625-5 1l1.137-1.469c6.09-7.978 12.586-16.58 14.437-26.656.524-4.768.778-9.522.989-14.312l.13-2.795q.159-3.384.307-6.768M646 389h3c-3.267 10.796-10.31 18.978-18 27l-1.613 1.734c-1.082 1.136-2.227 2.211-3.387 3.266h-2v2c-2.336 1.727-2.336 1.727-5.375 3.625l-3.023 1.914C613 430 613 430 611 430v-2c1.638-1.046 3.31-2.04 5-3l2.125-1.687L620 422h3v-3l3-1 1-2h2v-2l3-3 2.063-3.187L636 405h2v-4h2v-2h2l.313-2.187c.76-3.114 1.778-5.243 3.687-7.813M770 336l1 3-1 3q-.15 3.436-.25 6.875c-.234 3.8-.234 3.8-.75 7.125-2.5 3.063-2.5 3.063-5 5-.872 2.678-.872 2.678-1 5h-1c-1.47 4.303-2.774 8.623-4 13h-2l-1 7h-2c.614-4.479 1.75-8.424 3.328-12.656l.7-1.892q1.105-2.978 2.222-5.952 1.087-2.92 2.171-5.843l1.436-3.863c2.445-6.575 4.801-13.181 7.143-19.794M602 267c7.469 1.894 12.913 5.366 19 10l2.598 1.906c4.633 3.466 4.633 3.466 6.402 5.094l1 3-2 1v-3h-2v2l-5-1v2l-2-1 1-2-2-1v-4h-2l-2.25-2.375c-2.898-2.767-4.92-3.645-8.75-4.625v-2h-2zM281 329c.925 3.03.983 5.25.563 8.375-1.013 9.492-.645 19.092-.563 28.625h2l.313 3.375L284 373c2.773 1.938 2.773 1.938 5 3l-1 1.563c-1.32 3.217-1.132 5.994-1 9.437h2l1 7c-5.647-6.783-8.289-16.443-10-25-.903-6.29-1.192-12.525-1.187-18.875l-.002-2.638c.051-6.322.61-12.343 2.189-18.487M720 312c2.107 3.16 3.425 6.348 4.785 9.863l.792 2.03q.825 2.123 1.646 4.248a1398 1398 0 0 0 2.521 6.459l1.604 4.138.76 1.933c1.44 3.759 2.368 7.34 2.892 11.329l-2-1v-2h-3c-.562-2.312-.562-2.312-1-5l1-3h-2q-.507-2.123-1-4.25l-.562-2.39C726 332 726 332 726 328h-3l-.812-2.437L721 323l-3-1v-5h2zM847 244l2 1c-12.149 6.938-24.33 8.355-38.125 8.938-11.933.594-23.307 2.026-34.875 5.062l1-2c2.11-.852 2.11-.852 4.75-1.625.861-.26 1.722-.52 2.61-.79 2.637-.584 4.948-.692 7.64-.585v-2l2.548-.06q4.777-.12 9.555-.257 2.05-.057 4.099-.105c17.204-.29 17.204-.29 33.486-5.266A88 88 0 0 1 847 244M159 340h8l-1 3h2q1.007 1.935 2 3.875l1.125 2.18C172 351 172 351 172 353l2.875.875C178 355 178 355 180 357l.438 2.25c.469 2.917.469 2.917 2.187 5.938L184 368l-1 2c-3.282-4.031-6.374-8.178-9.437-12.375l-1.409-1.922-1.4-1.914-1.39-1.886a103 103 0 0 1-2.685-3.94c-1.39-2.174-1.39-2.174-3.679-4.963h-4zM235 242c.976 2.928 1.082 4.956 1 8 2.712-1.613 5.374-3.249 8-5-1.658 3.945-4.347 6.935-7.125 10.125a382 382 0 0 0-12.316 15.047C223 272 223 272 221 273v-4h3l1-5 3-1c1.233-1.86 1.233-1.86 2.188-4.062l1.042-2.223L232 255l-2-1 3-1-.07-1.898-.055-2.477-.07-2.46L233 244zM131 263h1v51h3l-1 3h-3c-1.126-2.252-1.158-3.565-1.221-6.067l-.07-2.538-.06-2.743-.07-2.809q-.072-2.94-.137-5.883c-.067-3.014-.145-6.027-.223-9.04q-.068-2.853-.133-5.705l-.072-2.75c-.044-2.154-.035-4.31-.014-6.465l1-1v-8z"/><path fill="#54b7c4" d="M485 493h4v45l-4-2 1-2c.157-2.988.259-5.955.316-8.945l.063-2.682q.097-4.249.183-8.498l.131-5.754q.161-7.06.307-14.121z"/><path fill="#a994c0" d="M322 491h2l1 47h-3z"/><path fill="#e7e9e8" d="M692 264c3.188-.312 3.188-.312 7 0 3.43 2.679 5.349 5.388 7.055 9.32q.93 2.395 1.82 4.805l.969 2.457c1.697 4.464 1.697 4.464 2.156 6.418l-1 3c-3.938-6.277-3.938-6.277-4.25-9.937L706 278h-4l-.187-3.312L701 271c-2.802-2.271-5.47-3.346-9-4zM212 219v3l-3 3a312 312 0 0 0-2 5l-1.625 2.063L204 234v4h-3l-1 2c-2.062.625-2.062.625-4 1l-.75 3.375L194 248c-2.125 1.438-2.125 1.438-4 2l-2-2 1.512-1.844c3.646-4.452 7.288-8.906 10.91-13.379l1.763-2.175q1.737-2.146 3.472-4.293l1.62-2 1.445-1.788C210 221 210 221 212 219"/><path fill="#57a8ed" d="M327 495h3v23l4 1-1 2-6 2z"/><path fill="#e7e9e8" d="M178 261c0 2.621-.313 4.51-1 7h3l-1 4h-2l-1-2-1.426 1.531-1.887 1.969-1.863 1.969L169 277h-3l-.125 2.188L165 282a112 112 0 0 1-6 5l-2 3-2-1c7.602-9.389 15.235-18.745 23-28M631 287c5.854 3.108 8.525 7.507 12 13 1.775 2.945 3.542 5.883 5 9v2h-3v-3l-3-1-1.312-3.437L639 300c-3.052-1.52-3.052-1.52-6-2l-1 2c-.562-1.875-.562-1.875-1-4l1-2 3 2 1-2h-2v-4l-3-1zM277 424c2.648 2.578 4.944 4.916 7 8-.312 2.125-.312 2.125-1 4l-1 1a70 70 0 0 1-4.52.114h-2.912l-3.166-.016-3.224-.005c-3.413-.005-6.827-.018-10.24-.03q-3.462-.009-6.924-.014-8.508-.017-17.014-.049v-1l3.9-.076q7.154-.142 14.307-.296 3.098-.065 6.195-.125 4.45-.088 8.899-.187l2.803-.05 2.608-.06 2.295-.048c2.202-.094 2.202-.094 4.993-1.158v-2h-2l.063-2.312c.066-2.79.066-2.79-1.063-5.688M199 298l2 1-1.785 1.828-2.278 2.422-2.285 2.39L193 308c.42 3.215 1.33 4.468 3.285 7.234q1.38 1.766 2.778 3.516l1.431 1.824A872 872 0 0 0 204 325l-1 2-5-1 1-5-4-1-.25-2.375L194 315c-1.95-1.225-1.95-1.225-4-2l-1-2h2l-1-5h3l1-3a141 141 0 0 1 5-5M391 396l2 1c-2.333 2.417-4.547 3.845-7.723 4.934-5.89 1.556-11.194 2.417-17.277 2.066v2l-5.86-.781c-2.445-.287-2.445-.287-6.14-.219v-2l-2.312.25L351 403c-1.668-2.016-1.668-2.016-3-4l2.64.656c11.573 2.705 21.125 3.261 32.669.293 2.787-.878 2.787-.878 5.414-2.617zM306 415c3.215.897 5.633 1.704 8.25 3.813 3.899 3.1 8.264 5.061 12.75 7.187v2h2l2 4c-4.843-1.39-8.861-3.528-13.062-6.25l-1.815-1.121c-4.218-2.708-7.079-5.647-10.123-9.629"/><path fill="#ffd715" d="M732 247c3 1 3 1 4.395 2.453l1.418 1.797c2.032 2.48 4.048 4.571 6.562 6.563L747 260v2l3 1v2h2l2 4-3 2-2-2v-3l-4-1v-2l-6-1 1-2h3c-2.052-2.248-3.007-3.002-6-4-.687-2.062-.687-2.062-1-4h-2z"/><path fill="#e7e9e8" d="M243 379c4.323 3.918 7.556 8.39 10.926 13.14 2.501 3.449 5.182 6.724 7.922 9.985L263 404l-1 3-3-2v-2h-2l-1.125-3.187c-.91-2.174-1.646-3.6-3.375-5.215l-1.625-1.223L248 391c-.875-2.812-.875-2.812-1-5h-2v-3h-2zM607 430l3 1c-15.83 8.173-30.573 8.44-48 8v-1l3.953-.113c8.837-.312 17.074-.76 25.613-3.254 3.265-.85 6.084-.861 9.434-.633v-2c2.813-1.062 2.813-1.062 6-2M519 413h6v2h2v3h4v3h2v2h2v3c-3.158-1.398-5.323-3.052-7.75-5.5l-1.86-1.844L524 417v-2h-3l-.148 3.832-.227 4.98c-.03.834-.062 1.667-.094 2.526l-.117 2.432-.095 2.237C520 433 520 433 518 436l-3-1c.48-.47.962-.938 1.457-1.422 2.282-3.813 2.111-7.458 2.23-11.828l.104-2.547c.082-2.067.147-4.135.209-6.203M157 344l2 1q-1.426 2.007-2.875 4l-1.617 2.25L153 353h-2l-.824 1.798c-1.15 2.155-2.33 3.664-3.996 5.436l-1.621 1.739-1.684 1.777-1.707 1.824Q139.089 367.792 137 370l-1-2-2-1h2v-3h2v-2l2.625-1.062c3.65-2.096 5.548-4.228 8.078-7.512L150 352h2v-3c2.5-2.687 2.5-2.687 5-5M797 365h3c-2.056 7.442-4.708 14.508-7.687 21.625l-1.26 3.043q-1.52 3.669-3.053 7.332h-2v-3h2l.438-3.437L789 387l1-1c.532-2.574.964-5.159 1.402-7.75L792 376l2-1c.652-2.025.652-2.025 1-4h2zM241 196h41l-1 5-1-2c-7.193-1.182-14.585-1.047-21.855-.969-5.731-.057-11.436-.558-17.145-1.031zM449 382l2 1a1497 1497 0 0 1-3.687 7.563l-1.03 2.134c-2.367 4.802-5.07 9.02-8.283 13.303l-2-1v-2h2l.438-2.187L439 398l.313-2.625L440 393c1.938-1.812 1.938-1.812 4-3h2v-4l2-1zM225 414h2q.253 2.156.5 4.313l.281 2.425C228 423 228 423 228 426l1.5 3c1.5 3 1.5 3 1.5 6-4.518-5.055-8.349-10.29-12-16l2-1v-2l3 1 1 3zM838 248c-4.843 3.229-10.271 3.602-16 4-7.998.232-16.001.127-24 0v-1l2.957-.184 3.856-.254c1.264-.08 2.529-.162 3.832-.246 3.347-.188 3.347-.188 6.355-1.316 2.588-.23 5.158-.418 7.75-.562l2.094-.131c4.393-.26 8.755-.347 13.156-.307M347 264v2h2v2h-5l-1 3-2.5-.5c-3.913-.559-7.552-.568-11.5-.5 4.689-4.281 11.68-6.612 18-6M716 508l1 2c-9.886 4.12-21.507 3.14-32 3l1-2 3.563.188c5.796.027 11.263-1.27 16.886-2.532 3.286-.607 6.222-.779 9.551-.656M334 309l2 1-1.574 1.95C329.062 318.9 325.75 325.68 323 334l-1-2-3-1h2l-.812-2.187L320 326c2.125-2.187 2.125-2.187 3.535-3.406 2.482-2.7 3.71-6.05 5.156-9.387C330 311 330 311 332.027 309.637zM826 296l2 1c-1.98 6.32-4.005 12.386-7.117 18.242-1.253 2.495-2.082 5.089-2.883 7.758-1-3-1-3-.695-4.945l.57-2.18c1.123-4.62 1.674-9.143 2.125-13.875l2.438-.75L825 300c.887-2.041.887-2.041 1-4M220 273v3c-1.82 2.317-3.661 4.5-5.625 6.688a1693 1693 0 0 0-3.305 3.769l-1.608 1.838c-2.667 3.11-5.07 6.382-7.462 9.705l-2-4 1.875-.75c2.27-1.104 2.27-1.104 3.375-3.375L206 288h2v-3h3l-1-3 3-1 1.438-2.937L216 275c2.188-1.375 2.188-1.375 4-2M185 371h3c3.61 3.727 6.02 8.23 8 13v2h2v2h2l2 7c-3.602-3.408-6.388-6.83-9.062-11-1.962-3.045-3.892-5.943-6.184-8.75L185 373zM277 201h3c-1.73 4.21-4.682 7.351-7.625 10.75l-1.562 1.824Q268.91 215.792 267 218l-2-1 1-6h2v-3h4v-2l3-1c1.209-2 1.209-2 2-4M816.83 264.76c2.23-.01 4.458-.041 6.688-.072q2.134-.01 4.267-.016l3.903-.028C835 265 835 265 837.45 266.52L839 268l-1 5-2-3v-3c-19.524-.2-19.524-.2-39 1l1-2c6.045-1.76 12.584-1.224 18.83-1.24M578 261l2.586.086c7.265.437 13.62 2.365 20.414 4.914l-3 1a76 76 0 0 1-5.297-1.395c-7.002-1.853-13.74-2.155-20.953-2.293l-3.738-.103q-4.506-.123-9.012-.209v-1c6.36-.743 12.597-1.236 19-1M326 270l3 1-3 1v3c-3.445 2.296-5.938 2.54-10 3l-1 4h-2l-1 3-4-2c5.479-4.992 11.337-9.68 18-13M740 366c2.7 2.7 3.702 5.88 5.063 9.375l.814 2.04c1.046 2.65 2.044 5.202 2.62 8L749 387l3 1 1-2-1 4c-1.875-.25-1.875-.25-4-1-1.125-2-1.125-2-2-4l-2-1c-1.795-2.64-2.206-5.08-2.562-8.187L741 372l-1-1a100 100 0 0 1 0-5M711 290c2.097 2.097 2.688 3.403 3.727 6.133l.937 2.441.961 2.551.984 2.574q1.203 3.148 2.391 6.301l-2 1-1-6h-3l-1-3-2-2 1-3-3 1zM700 370l2 1v2h2l1 7 3-1 .184 1.793c.436 4.117.903 8.162 1.816 12.207-3.26-3.75-4.858-8.072-6.687-12.625l-.971-2.352C700 372.271 700 372.271 700 370M418 422l3 1c-7.63 5.305-15.221 8.971-24 12l1-3 5-1v-2q2.124-.721 4.25-1.437l2.39-.81A85 85 0 0 1 416 425v-2z"/><path fill="#57a8ed" d="M332 521c2.625.375 2.625.375 5 1v4l-2 3-5-1c-.125-2.375-.125-2.375 0-5z"/><path fill="#e7e9e8" d="m813 330 1 2a108 108 0 0 1-2.437 6.625l-1.434 3.602L809 345a141 141 0 0 1-5-5v-2h3v-2l1.875-.75c2.27-1.104 2.27-1.104 3.375-3.375zM535 426c3.63.998 6.536 2.275 9.625 4.375 5.05 3.311 10.627 4.91 16.375 6.625-1.68.598-1.68.598-4 1-7.548-1.748-14.737-5.49-21-10zM435 406h2c-3.112 6.707-8.26 11.49-14 16l-2-1c1.813-2.5 1.813-2.5 4-5h3v-3h2v-2h-2v-2l2.938-.375L434 408zM521 373l2 1 1 3 1.813 1.75c2.76 2.839 4.312 5.768 6.187 9.25h-5l-.875-2.937L525 382l-2-1c-1.125-1.812-1.125-1.812-2-4zM284 374l5 1-1 2.063c-1.173 3.445-1.142 6.321-1 9.937h2l1 7c-3.286-3.779-5.528-8.233-7-13-.038-2.577.356-4.477 1-7M353.414 298.371 355 299l-2.887 1.426q-1.9.943-3.8 1.887l-1.897.935c-3.57 1.776-7.03 3.647-10.416 5.752.602-2.816.602-2.816 2-6 2.898-1.715 2.898-1.715 6.375-2.937l3.46-1.278c3.165-.785 3.165-.785 5.58-.414M733 497l4 1c-5.738 4.95-10.687 8.833-18 11v-2h3v-2l5-3v-2l6-1zM550 266v2l-2.875.188L544 269c-1.453 2.463-1.453 2.463-2 5l-2.062-.25c-4.107.35-6.461 2.068-9.938 4.25v-2c13.325-10 13.325-10 20-10M562.297 262.902l3.652.01 3.801.026 3.848.013q4.701.018 9.402.049v1l-28 1v2l-5-1c2-2 2-2 3.731-2.619 2.885-.485 5.64-.492 8.566-.479M265 408c4.15 3.906 8.025 8.113 11 13v3l-1.312-1.437c-1.711-1.8-1.711-1.8-4.688-2.563v-2h-2l-1-6h-2zM649 313c3.302 3.302 3.822 7.733 5.047 12.156 1.3 5.24 2.209 10.5 2.953 15.844h-2l-1.937-9.187-.553-2.62A923 923 0 0 1 650 317h-2zM322 367c2.22 2.22 2.837 3.834 3.938 6.75 1.501 3.88 3.125 7.57 5.062 11.25h-2v-2h-2c-2.062-1.812-2.062-1.812-4-5-.632-3.66-.87-7.292-1-11M169 272l1 2-1 3h-3l-.125 2.188L165 282a112 112 0 0 1-6 5l-2 3-2-1 6.438-7.937 1.853-2.288 1.768-2.177 1.634-2.016C168 273 168 273 169 272"/><path fill="#ffd715" d="M725 239c4.677 3.446 4.677 3.446 6.313 6.25L732 247l-3-1-2 2v-2l-6-2z"/><path fill="#e7e9e8" d="m290 394 5 5 2.688 2.5c2.329 2.518 3.242 4.289 4.312 7.5.652 1.34 1.314 2.677 2 4-6.28-4.396-10.173-10.424-14-17zM693 353c1.5 1.375 1.5 1.375 3 3v2l3 1c1.188 2.563 1.188 2.563 2 5h-2l1 6c-2.448-2.448-3.3-4.743-4.625-7.937l-1.352-3.215C693 356 693 356 693 353M606 319c3.287 1.913 4.904 2.906 7 6 1.208 5.212 1.044 10.679 1 16h-1l-.75-3.875c-.998-4.538-2.549-8.685-4.348-12.96-.706-1.694-1.322-3.425-1.902-5.165M234 256v3c-1.102 1.626-1.102 1.626-2.625 3.355l-1.64 1.885-1.735 1.947-1.734 1.983A971 971 0 0 1 222 273l-1-4h3l1-5 3-1a250 250 0 0 0 4-6zM806 346h2c-2.058 6.454-4.424 12.736-7 19-.727-2.256-1.035-3.78-.66-6.14L802 353h2l.438-1.812c.45-1.75.99-3.475 1.562-5.188"/><path fill="#ffd715" d="M732 247c3 1 3 1 4.395 2.453l1.418 1.797c2.788 3.39 5.74 6.041 9.187 8.75l-3 1-1.812-1.937c-2.096-2.266-2.096-2.266-5.188-3.063-.687-2.062-.687-2.062-1-4h-2z"/><path fill="#e7e9e8" d="M743 171h1c.255 3.27.474 6.54.688 9.813l.22 2.814.166 2.705.175 2.491L745 191c-1.505 1.792-1.505 1.792-3 3-.157-7.716.325-15.315 1-23m2 12 1 4ZM519 413l5 1-3 1-.148 3.832-.227 4.98c-.03.834-.062 1.667-.094 2.526l-.117 2.432-.095 2.237C520 433 520 433 518 436l-3-1c.48-.47.962-.938 1.457-1.422 2.282-3.813 2.111-7.458 2.23-11.828l.104-2.547c.082-2.067.147-4.135.209-6.203M434 292c3.636 3.434 6.361 6.797 9 11l-1 2-2-4h-2v-2l-4-1-1 2zM543 301c2.121.418 2.121.418 4 1l-2.23 1.39-2.957 1.86-2.918 1.828c-2.77 1.838-5.335 3.806-7.895 5.922 1.875-4.75 1.875-4.75 3-7q2.495-1.01 5-2l2.063-1.687zM384 299l2 2c-1.038-.2-1.038-.2-2.098-.402-8.305-1.5-16.485-2.161-24.902-2.598v-1c8.829-1.07 16.657-1.507 25 2M658 264h7l1 4h-3v-3h-2v4h-2l-1 3c-.39-1.99-.719-3.992-1-6zM264 218l2 1-11 14-1-2c1.39-3.553 2.645-5.697 5.563-8.187L262 221zM152 293h1v5l-1.766.246c-2.372.624-2.372.624-4.156 2.602l-1.828 2.214-1.86 2.223L142 307v-3c1.595-2 3.186-3.836 4.938-5.687l1.42-1.55A154 154 0 0 1 152 293M204 327c3.26 3.17 6.222 6.4 9 10l-1 2-3-2v-2l-3-1c-1.187-3.562-1.187-3.562-2-7M528 278l2 1c-.375 2.375-.375 2.375-1 5l-2 2h-3c.313-2.312.313-2.312 1-5 1.563-1.812 1.563-1.812 3-3M685 336c3.875 1.875 3.875 1.875 5 3 .04 2 .043 4 0 6h2v6c-2.004-3.006-3.261-5.85-4.625-9.187l-1.352-3.293zM659 272c2.438 1.938 2.438 1.938 5 5 .712 2.997.926 5.926 1 9l-2-1c-1.07-2.18-1.07-2.18-2.125-4.875l-1.07-2.68C659 275 659 275 659 272M594 394l2 3-5 1v2c-2.75 1.063-2.75 1.063-6 2-2.203-.441-2.203-.441-4-1l2.59-1.277 3.347-1.66 3.34-1.653c2.57-1.157 2.57-1.157 3.723-2.41M744 377c2.027 2.396 3.048 4.155 4 7.188l1 2.812 3 1 1-2-1 4c-1.812-.187-1.812-.187-4-1-2.346-2.955-3.013-5.072-3.687-8.812zM730 343h3l2 9-2-1v-2h-3a88 88 0 0 1-1-5zM763 455l1 2a92 92 0 0 1-2.437 6.125l-1.434 3.32L759 469c-1-3-1-3-1-7h2l.375-1.812C761 458 761 458 763 455M712 393l2 3v3l2 1-1 5-2-1c-.852-2.285-.852-2.285-1.625-5.062-.26-.92-.52-1.839-.79-2.786L710 394zM175 358h2c2.49 2.054 4.533 3.854 5.77 6.89.476 1.686.86 3.398 1.23 5.11-3.255-3.165-6.32-6.328-9-10zM449 323h3l2 10-2-1v-4l-4 1z"/><path fill="#ffd715" d="M715 249c0 2.84-.403 5.237-1 8-2.763.597-5.16 1-8 1z"/><path fill="#e7e9e8" d="M223 424c2.313.625 2.313.625 5 2 1.813 2.938 1.813 2.938 3 6v3a513 513 0 0 1-2.875-3.25l-1.617-1.828c-1.488-1.896-2.511-3.735-3.508-5.922M222 351c2.964 2.808 5.445 5.183 7 9l-4 1a752 752 0 0 1-1.5-3.875l-.844-2.18C222 353 222 353 222 351"/><path fill="#f1ecd4" d="M735 247h2v2h2v3l3-1v2l2 1-3 2c-1.5-1.375-1.5-1.375-3-3v-2l-3-1z"/><path fill="#e7e9e8" d="M243 245v3c-1.531 2.043-1.531 2.043-3.5 4.188l-1.969 2.167L236 256c-.562-1.875-.562-1.875-1-4l1-2a264 264 0 0 1 5-3zM250 232c2.125.938 2.125.938 4 2l-5 6v-3l-3 1a78 78 0 0 1 2-5zM229 360c2.964 2.808 5.445 5.183 7 9h-4v-2h-2zM184 253h1c.188 2.875.188 2.875 0 6l-3 2h-3c1.37-2.951 2.932-5.483 5-8M901 190l3 2-7 7-2-4h3v-2h3zM715 406c3 2 3 2 4.688 4.75 1.362 3.374 1.569 5.653 1.312 9.25-2.256-2.256-2.966-4.046-4.125-7l-1.07-2.687C715 408 715 408 715 406M775 321c.947 2.736.957 4.317.563 7.25L775 331h-2v4h-2c1.148-4.754 2.383-9.379 4-14M621 278c3.984 2.163 6.89 4.712 10 8l-2 2-1-3-2-.5-2-.5-1-3-2-1z"/><path fill="#ffd715" d="m705 259 1 2 3 2-3 2 3 2-5-1c-.625-1.812-.625-1.812-1-4z"/><path fill="#e7e9e8" d="M785 398h2q-.68 2.159-1.375 4.313l-.773 2.425C784 407 784 407 782 410l1-9h2zM236 369c2.606 2.516 4.894 5.051 7 8l-1 2-1.312-1.437c-1.711-1.8-1.711-1.8-4.688-2.563zM615 342l2 1c.414 2.285.414 2.285.625 5.063l.227 2.785L618 353l-1-2h-2zM726 239l6 1 1 5h-3c-2.187-3-2.187-3-4-6"/><path fill="#f5db3b" d="m748 262 2 1v2h2l2 4-3 2-2-2v-3a93 93 0 0 0-1-4"/><path fill="#f1ecd4" d="M789 162q1.754 1.464 3.5 2.938l1.969 1.652L796 168v1h-5z"/><path fill="#e7e9e8" d="M797 365h3l-3 10-2-1v-3h2zM214 340a141 141 0 0 1 5 5v2a93 93 0 0 1-4-1l-1-1a100 100 0 0 1 0-5M529 313l2 1-5 8-1-3c.813-2.625.813-2.625 2-5zM140 307l1 4-1 2c-2.562.625-2.562.625-5 1z"/><path fill="#f5db3b" d="M725 239c4.677 3.446 4.677 3.446 6.313 6.25L732 247l-3-1-2-3c-2.05-1.192-2.05-1.192-4-2z"/><path fill="#e7e9e8" d="m559 264-4 1v2l-5-1c2-2 2-2 3.938-2.687C556 263 556 263 559 264M820 195c2.884 1.293 4.872 2.66 7 5-3.106 0-4.353-.54-7-2zM344 435c2.01.262 4.012.602 6 1l2 2-8-1zM391 304a85 85 0 0 1 7 2v3c-2.884-1.293-4.872-2.66-7-5M714 508l3 1-2 2c-1.988.398-3.99.738-6 1v-2c2.313-1.062 2.313-1.062 5-2M605 316l4 1v4a181 181 0 0 1-4-4zM398 309l4 1 1 5-3-2v-2h-2z"/><path fill="#ffd715" d="m720 244 1 2c-.937 2.625-.937 2.625-2 5l-1-2-2-1z"/><path fill="#e7e9e8" d="M277 201h3c-.812 1.875-.812 1.875-2 4l-3 2zM815 323h2l-2 7-2-4h2zM282 196l-1 5-1-2h-2v-2c2-1 2-1 4-1M758 141l1 2-4 4-2-1zM183 364h2v7c-1.562-1.812-1.562-1.812-3-4zM733 497l4 1-3 3-2-1z"/><path fill="#f5db3b" d="m742 256 5 5-4-1z"/><path fill="#e7e9e8" d="m649 313 2 2-1 3-2-1zM915 176l2 2-3 3-1-3zM543 301c2.125.438 2.125.438 4 1l-4 2-2-2zM763 263l3 2-5 2z"/><path fill="#f1ecd4" d="m828 201 2 1-1 4-2-3z"/><path fill="#e7e9e8" d="m910 180 4 2-3 2zM436 403h3l-1 3-2-1z"/><path fill="#f1ecd4" d="M730 243h3l-1 3-2-1zM824 198l3 1-2 2z"/></svg>